<svg width="480" height="120" viewBox="0 0 480 120" xmlns="http://www.w3.org/2000/svg">
  <rect width="480" height="120" fill="#111827"/>
  <!-- Icon H (light) -->
  <g transform="translate(20,12)">
    <rect x="0" y="0" width="96" height="96" rx="16" fill="#ffffff"/>
    <rect x="24" y="16" width="12" height="64" rx="6" fill="#111827"/>
    <rect x="60" y="16" width="12" height="64" rx="6" fill="#111827"/>
    <rect x="36" y="44" width="24" height="12" rx="6" fill="#111827"/>
  </g>
  <!-- Wordmark (light) -->
  <g fill="#ffffff" transform="translate(140,20) scale(0.6)">
    <path d="M0,80 L0,0 L16,0 L16,32 L48,32 L48,0 L64,0 L64,80 L48,80 L48,48 L16,48 L16,80 Z"/>
    <path d="M80,80 L80,0 L144,0 L144,16 L96,16 L96,32 L136,32 L136,48 L96,48 L96,64 L144,64 L144,80 Z"/>
    <path d="M160,80 L160,0 L176,0 L208,48 L208,0 L224,0 L224,80 L208,80 L176,32 L176,80 Z"/>
    <path d="M248,40 C248,14 270,0 296,0 C322,0 344,14 344,40 C344,66 322,80 296,80 C270,80 248,66 248,40 Z M264,40 C264,56 277,64 296,64 C315,64 328,56 328,40 C328,24 315,16 296,16 C277,16 264,24 264,40 Z"/>
    <path d="M360,40 C360,14 382,0 408,0 C420,0 430,3 440,10 L432,22 C425,18 418,16 410,16 C390,16 376,24 376,40 C376,56 390,64 410,64 C418,64 425,62 432,58 L440,70 C430,77 420,80 408,80 C382,80 360,66 360,40 Z"/>
  </g>
</svg>
