<svg width="640" height="160" viewBox="0 0 640 160" xmlns="http://www.w3.org/2000/svg">
  <rect width="640" height="160" fill="#ffffff"/>
  <g fill="#111827" transform="translate(40,30)">
    <path d="M0,100 L0,0 L20,0 L20,40 L60,40 L60,0 L80,0 L80,100 L60,100 L60,60 L20,60 L20,100 Z"/>
    <path d="M100,100 L100,0 L180,0 L180,20 L120,20 L120,40 L170,40 L170,60 L120,60 L120,80 L180,80 L180,100 Z"/>
    <path d="M200,100 L200,0 L220,0 L260,60 L260,0 L280,0 L280,100 L260,100 L220,40 L220,100 Z"/>
    <path d="M310,50 C310,18 340,0 370,0 C400,0 430,18 430,50 C430,82 400,100 370,100 C340,100 310,82 310,50 Z M330,50 C330,69 347,80 370,80 C393,80 410,69 410,50 C410,31 393,20 370,20 C347,20 330,31 330,50 Z"/>
    <path d="M460,50 C460,18 490,0 520,0 C535,0 548,4 560,12 L550,28 C541,22 532,20 522,20 C497,20 480,31 480,50 C480,69 497,80 522,80 C532,80 541,78 550,72 L560,88 C548,96 535,100 520,100 C490,100 460,82 460,50 Z"/>
  </g>
</svg>

